# xmcd CD database file
#
# Track frame offsets:
#	183
#	13895
#	29148
#	42815
#	56995
#	76425
#	90148
#	104780
#	116630
#	124955
#	136065
#	152165
#	182273
#
# Disc length: 2611 seconds
#
# Revision: 0
# Processed by: cddbd v1.5.2PL0 Copyright (c) Steve Scherf et al.
# Submitted via: CDex 1.51
#
DISCID=ad0a310d
DTITLE=Varios - Selección Jazz vol. 2
DYEAR=1995
DGENRE=Jazz
TTITLE0=Ella Fitzgerald - Basin Street Blues
TTITLE1=Woody Herman - Blue Flame
TTITLE2=Miles Davis - A Night In Tunisia
TTITLE3=Count Basie - One O'Clock Jump
TTITLE4=Duke Ellington - Perdido
TTITLE5=Lena Horne - Mobody Knows The Trouble I've Seen
TTITLE6=Sara Vaughan - I've Got The World On A String
TTITLE7=Benny Gookman - Bugle Call
TTITLE8=Louis Amstrong - Savoy Stomp
TTITLE9=Mahalia Jackson - Joshua Fit The Battle Of Jerico
TTITLE10=Chriss Barber - All Of Me
TTITLE11=Louis Amstrong - New Orleans Function
TTITLE12=Glenn Miller - Little Brown Jug
EXTD=YEAR: 1995
EXTT0=
EXTT1=
EXTT2=
EXTT3=
EXTT4=
EXTT5=
EXTT6=
EXTT7=
EXTT8=
EXTT9=
EXTT10=
EXTT11=
EXTT12=
PLAYORDER=
